0
SECTION
2
HEADER
9
$INSUNITS
70
4
0
ENDSEC
0
SECTION
2
TABLES
0
TABLE
2
LTYPE
0
LTYPE
72
65
70
64
2
CONTINUOUS
3
______
73
0
40
0
0
ENDTAB
0
TABLE
2
LAYER
0
ENDTAB
0
ENDSEC
0
SECTION
2
ENTITIES
0
LINE
8
0
10
15.5764018
20
-4.6036183
11
15.7614372
21
-5.3457549
0
LINE
8
0
10
-5.3457549
20
-15.7614372
11
12.1195682
21
-11.4068431
0
LINE
8
0
10
-23.9867817
20
38.3358096
11
-11.4068431
21
-12.1195681
0
LINE
8
0
10
-20.3449126
20
44.3968978
11
1.2819648
21
49.789084
0
LINE
8
0
10
20.0790979
20
1.5938115
11
30.780353
21
2.3421162
0
LINE
8
0
10
9.511787
20
63.0062708
11
24.9635543
21
64.0867635
0
LINE
8
0
10
5.0601756
20
54.989345
11
4.8727492
21
57.669668
0
LINE
8
0
10
30.7810549
20
2.3019057
11
53.1538439
21
2.6924242
0
LINE
8
0
10
30.7810549
20
2.3019057
11
30.780353
21
2.3421162
0
LINE
8
0
10
34.5238947
20
74.3682033
11
50.5350333
21
74.6476788
0
LINE
8
0
10
53.1421211
20
74.6931857
11
57.5203917
21
74.7696087
0
LINE
8
0
10
57.5203917
20
74.7696087
11
57.5217257
21
74.6931857
0
LINE
8
0
10
29.6140104
20
69.1618458
11
29.6119182
21
69.2817028
0
LINE
8
0
10
53.2411059
20
2.6931857
11
62.5023526
21
2.6931857
0
LINE
8
0
10
57.5217257
20
74.6931857
11
100.5350333
21
74.6931858
0
LINE
8
0
10
50.5350333
20
74.6931857
11
53.1421211
21
74.6931857
0
LINE
8
0
10
50.5350333
20
74.6476788
11
50.5350333
21
74.6931857
0
LINE
8
0
10
65.2057713
20
-17.6243557
11
76.4951388
21
-24.142275
0
LINE
8
0
10
63.3756443
20
-10.7942287
11
66.8324796
21
-4.8068143
0
LINE
8
0
10
76.7911033
20
-24.3272141
11
91.4716436
21
-34.2293635
0
LINE
8
0
10
116.6382009
20
-47.5310855
11
127.6029994
21
-33.4967835
0
LINE
8
0
10
91.7539865
20
-34.4344976
11
109.6198397
21
-48.3928319
0
ARC
8
0
10
10.9099586
20
-6.5553645
40
5
50
284.0000006
51
14.0000006
0
ARC
8
0
10
-6.5553645
20
-10.9099586
40
5
50
194.0000006
51
284.0000006
0
ARC
8
0
10
-19.1353031
20
39.5454192
40
5
50
104.0000006
51
194.0000006
0
ARC
8
0
10
0.0723553
20
54.6405626
40
5
50
284.0000006
51
4.0000013
0
ARC
8
0
10
9.8605695
20
58.0184505
40
5
50
94.0000013
51
184.0000013
0
ARC
8
0
10
24.6147719
20
69.0745838
40
5
50
274.0000013
51
0.9999996
0
ARC
8
0
10
34.6111567
20
69.3689648
40
5
50
90.9999996
51
180.9999996
0
ARC
8
0
10
112.6981471
20
-44.4527781
40
5
50
232.0000005
51
322.0000005
0
ARC
8
0
10
88.6756791
20
-38.3745514
40
5
50
52.0000005
51
56.000001
0
ARC
8
0
10
73.9951388
20
-28.472402
40
5
50
56.000001
51
59.9999999
0
ARC
8
0
10
67.7057713
20
-13.2942287
40
5
50
149.9999999
51
239.9999999
0
ARC
8
0
10
62.5023526
20
-2.3068143
40
5
50
329.9999999
51
90
0
ARC
8
0
10
53.2411059
20
-2.3068143
40
5
50
90
51
90.9999996
0
ARC
8
0
10
20.4278804
20
-3.3940088
40
5
50
94.0000013
51
194.0000006
0
ARC
8
0
10
122.5350333
20
-27.3068142
40
8
50
309.3085069
51
360
0
LINE
8
0
10
130.5350333
20
-27.3068142
11
130.5350333
21
1.6931858
0
LINE
8
0
10
-5.0986168
20
-8.4855234
11
8.4855234
21
-5.0986168
0
LINE
8
0
10
8.4855234
20
-5.0986168
11
5.0986168
21
8.4855234
0
LINE
8
0
10
5.0986168
20
8.4855234
11
-8.4855234
21
5.0986168
0
LINE
8
0
10
-8.4855234
20
5.0986168
11
-5.0986168
21
-8.4855234
0
LINE
8
0
10
-9.211289
20
8.0095039
11
4.3728512
21
11.3964105
0
LINE
8
0
10
4.3728512
20
11.3964105
11
0.9859446
21
24.9805507
0
LINE
8
0
10
0.9859446
20
24.9805507
11
-12.5981956
21
21.5936441
0
LINE
8
0
10
-12.5981956
20
21.5936441
11
-9.211289
21
8.0095039
0
LINE
8
0
10
-13.3239613
20
24.5045313
11
0.2601789
21
27.8914379
0
LINE
8
0
10
0.2601789
20
27.8914379
11
-3.1267277
21
41.4755781
0
LINE
8
0
10
-3.1267277
20
41.4755781
11
-16.7108679
21
38.0886715
0
LINE
8
0
10
-16.7108679
20
38.0886715
11
-13.3239613
21
24.5045313
0
LINE
8
0
10
15.3435212
20
8.279761
11
29.3094179
21
9.2563517
0
LINE
8
0
10
29.3094179
20
9.2563517
11
28.3328272
21
23.2222484
0
LINE
8
0
10
28.3328272
20
23.2222484
11
14.3669305
21
22.2456577
0
LINE
8
0
10
14.3669305
20
22.2456577
11
15.3435212
21
8.279761
0
LINE
8
0
10
14.1576612
20
25.2383498
11
28.1235579
21
26.2149405
0
LINE
8
0
10
28.1235579
20
26.2149405
11
27.1469672
21
40.1808372
0
LINE
8
0
10
27.1469672
20
40.1808372
11
13.1810705
21
39.2042465
0
LINE
8
0
10
13.1810705
20
39.2042465
11
14.1576612
21
25.2383498
0
LINE
8
0
10
12.9718011
20
42.1969386
11
26.9376978
21
43.1735293
0
LINE
8
0
10
26.9376978
20
43.1735293
11
25.9611071
21
57.139426
0
LINE
8
0
10
25.9611071
20
57.139426
11
11.9952104
21
56.1628353
0
LINE
8
0
10
11.9952104
20
56.1628353
11
12.9718011
21
42.1969386
0
LINE
8
0
10
37.556598
20
15.2221231
11
51.5544657
21
15.4664568
0
LINE
8
0
10
51.5544657
20
15.4664568
11
51.310132
21
29.4643245
0
LINE
8
0
10
51.310132
20
29.4643245
11
37.3122643
21
29.2199908
0
LINE
8
0
10
37.3122643
20
29.2199908
11
37.556598
21
15.2221231
0
LINE
8
0
10
37.259907
20
32.2195339
11
51.2577747
21
32.4638676
0
LINE
8
0
10
51.2577747
20
32.4638676
11
51.013441
21
46.4617353
0
LINE
8
0
10
51.013441
20
46.4617353
11
37.0155733
21
46.2174016
0
LINE
8
0
10
37.0155733
20
46.2174016
11
37.259907
21
32.2195339
0
LINE
8
0
10
36.9632162
20
49.2169447
11
50.9610839
21
49.4612784
0
LINE
8
0
10
50.9610839
20
49.4612784
11
50.7167502
21
63.4591461
0
LINE
8
0
10
50.7167502
20
63.4591461
11
36.7188825
21
63.2148124
0
LINE
8
0
10
36.7188825
20
63.2148124
11
36.9632162
21
49.2169447
0
LINE
8
0
10
57.5350333
20
9.6931857
11
71.5350333
21
9.6931857
0
LINE
8
0
10
71.5350333
20
9.6931857
11
71.5350333
21
23.6931857
0
LINE
8
0
10
71.5350333
20
23.6931857
11
57.5350333
21
23.6931857
0
LINE
8
0
10
57.5350333
20
23.6931857
11
57.5350333
21
9.6931857
0
LINE
8
0
10
57.5350333
20
26.6931857
11
71.5350333
21
26.6931857
0
LINE
8
0
10
71.5350333
20
26.6931857
11
71.5350333
21
40.6931857
0
LINE
8
0
10
71.5350333
20
40.6931857
11
57.5350333
21
40.6931857
0
LINE
8
0
10
57.5350333
20
40.6931857
11
57.5350333
21
26.6931857
0
LINE
8
0
10
57.5350333
20
43.6931857
11
71.5350333
21
43.6931857
0
LINE
8
0
10
71.5350333
20
43.6931857
11
71.5350333
21
57.6931857
0
LINE
8
0
10
71.5350333
20
57.6931857
11
57.5350333
21
57.6931857
0
LINE
8
0
10
57.5350333
20
57.6931857
11
57.5350333
21
43.6931857
0
LINE
8
0
10
75.5350333
20
9.6931858
11
89.5350333
21
9.6931858
0
LINE
8
0
10
89.5350333
20
9.6931858
11
89.5350333
21
23.6931858
0
LINE
8
0
10
89.5350333
20
23.6931858
11
75.5350333
21
23.6931858
0
LINE
8
0
10
75.5350333
20
23.6931858
11
75.5350333
21
9.6931858
0
LINE
8
0
10
75.5350333
20
26.6931857
11
89.5350333
21
26.6931857
0
LINE
8
0
10
89.5350333
20
26.6931857
11
89.5350333
21
40.6931857
0
LINE
8
0
10
89.5350333
20
40.6931857
11
75.5350333
21
40.6931857
0
LINE
8
0
10
75.5350333
20
40.6931857
11
75.5350333
21
26.6931857
0
LINE
8
0
10
75.5350333
20
43.6931858
11
89.5350333
21
43.6931858
0
LINE
8
0
10
89.5350333
20
43.6931858
11
89.5350333
21
57.6931858
0
LINE
8
0
10
89.5350333
20
57.6931858
11
75.5350333
21
57.6931858
0
LINE
8
0
10
75.5350333
20
57.6931858
11
75.5350333
21
43.6931858
0
LINE
8
0
10
70.4378222
20
-12.5621778
11
82.5621778
21
-19.5621778
0
LINE
8
0
10
82.5621778
20
-19.5621778
11
89.5621778
21
-7.4378222
0
LINE
8
0
10
89.5621778
20
-7.4378222
11
77.4378222
21
-0.4378222
0
LINE
8
0
10
77.4378222
20
-0.4378222
11
70.4378222
21
-12.5621778
0
LINE
8
0
10
86.2368694
20
-22.2549381
11
97.8433954
21
-30.0836387
0
LINE
8
0
10
97.8433954
20
-30.0836387
11
105.672096
21
-18.4771127
0
LINE
8
0
10
105.672096
20
-18.4771127
11
94.06557
21
-10.6484121
0
LINE
8
0
10
94.06557
20
-10.6484121
11
86.2368694
21
-22.2549381
0
LINE
8
0
10
101.321298
20
-33.026173
11
112.3534485
21
-41.6454337
0
LINE
8
0
10
112.3534485
20
-41.6454337
11
120.9727092
21
-30.6132832
0
LINE
8
0
10
120.9727092
20
-30.6132832
11
109.9405587
21
-21.9940225
0
LINE
8
0
10
109.9405587
20
-21.9940225
11
101.321298
21
-33.026173
0
LINE
8
0
10
108.5350333
20
1.6931858
11
130.5350333
21
1.6931858
0
LINE
8
0
10
100.5350333
20
74.6931858
11
100.5350333
21
9.6931858
0
ARC
8
0
10
108.5350333
20
9.6931858
40
8
50
180
51
270
0
ENDSEC
0
EOF