M48
; DRILL file {KiCad (6.0.5)} date Sat May  7 21:13:37 2022
; FORMAT={-:-/ absolute / inch / decimal}
; #@! TF.CreationDate,2022-05-07T21:13:37-04:00
; #@! TF.GenerationSoftware,Kicad,Pcbnew,(6.0.5)
; #@! TF.FileFunction,Plated,1,2,PTH
FMAT,2
INCH
; #@! TA.AperFunction,Plated,PTH,ComponentDrill
T1C0.0430
; #@! TA.AperFunction,Plated,PTH,ComponentDrill
T2C0.0500
%
G90
G05
T1
X10.3394Y-4.0953
X10.3394Y-4.1953
X10.3394Y-4.2953
X10.3394Y-4.3953
X10.3394Y-4.4953
X10.3394Y-4.5953
X10.3394Y-4.6953
X10.3394Y-4.7953
X10.3394Y-4.8953
X10.3394Y-4.9953
X10.3394Y-5.0953
X10.3394Y-5.1953
X10.5811Y-3.9764
X10.7087Y-3.9764
X10.9394Y-4.0953
X10.9394Y-4.1953
X10.9394Y-4.2953
X10.9394Y-4.3953
X10.9394Y-4.4953
X10.9394Y-4.5953
X10.9394Y-4.6953
X10.9394Y-4.7953
X10.9394Y-4.8953
X10.9394Y-4.9953
X10.9394Y-5.0953
X10.9394Y-5.1953
T2
X5.7316Y-5.616
X5.8935Y-6.2654
X5.9426Y-5.6486
X5.9426Y-5.6486
X6.0554Y-6.9148
X6.1045Y-6.298
X6.1045Y-6.298
X6.1136Y-5.5208
X6.2664Y-6.9474
X6.2664Y-6.9474
X6.2755Y-6.1702
X6.4374Y-6.8196
X6.7907Y-4.9296
X6.8374Y-5.5972
X6.8841Y-6.2649
X6.9928Y-4.9983
X6.9928Y-4.9983
X7.0395Y-5.666
X7.0395Y-5.666
X7.0862Y-6.3336
X7.0862Y-6.3336
X7.1834Y-4.9021
X7.2301Y-5.5698
X7.2768Y-6.2374
X7.742Y-4.657
X7.7537Y-5.3262
X7.7654Y-5.9954
X7.9403Y-4.7363
X7.9403Y-4.7363
X7.952Y-5.4055
X7.952Y-5.4055
X7.9636Y-6.0746
X7.9636Y-6.0746
X8.1356Y-4.6502
X8.1473Y-5.3194
X8.159Y-5.9885
X8.5541Y-4.8759
X8.5541Y-5.5451
X8.5541Y-6.2144
X8.751Y-4.9585
X8.751Y-4.9585
X8.751Y-5.6278
X8.751Y-5.6278
X8.751Y-6.2971
X8.751Y-6.2971
X8.9478Y-4.8759
X8.9478Y-5.5451
X8.9478Y-6.2144
X9.1146Y-7.1469
X9.2437Y-7.3169
X9.2437Y-7.3169
X9.2628Y-4.8759
X9.2628Y-5.5451
X9.2628Y-6.2144
X9.4555Y-7.3437
X9.4596Y-4.9585
X9.4596Y-4.9585
X9.4596Y-5.6278
X9.4596Y-5.6278
X9.4596Y-6.2971
X9.4596Y-6.2971
X9.6565Y-4.8759
X9.6565Y-5.5451
X9.6565Y-6.2144
X9.7411Y-7.5378
X9.8581Y-7.7164
X9.8581Y-7.7164
X10.0675Y-7.758
X10.3389Y-7.9715
X10.4431Y-8.1578
X10.4431Y-8.1578
X10.6491Y-8.2139
T0
M30
