M48
; DRILL file {KiCad (6.0.5)} date Sat May  7 21:13:37 2022
; FORMAT={-:-/ absolute / inch / decimal}
; #@! TF.CreationDate,2022-05-07T21:13:37-04:00
; #@! TF.GenerationSoftware,Kicad,Pcbnew,(6.0.5)
; #@! TF.FileFunction,NonPlated,1,2,NPTH
FMAT,2
INCH
; #@! TA.AperFunction,NonPlated,NPTH,ComponentDrill
T1C0.0354
; #@! TA.AperFunction,NonPlated,NPTH,ComponentDrill
T2C0.0670
; #@! TA.AperFunction,NonPlated,NPTH,ComponentDrill
T3C0.1181
; #@! TA.AperFunction,NonPlated,NPTH,ComponentDrill
T4C0.1350
%
G90
G05
T1
X9.8618Y-3.962
X9.8618Y-3.962
X9.9799Y-3.962
X9.9799Y-3.962
T2
X5.6763Y-5.4756
X5.6763Y-5.4756
X5.8382Y-6.125
X5.8382Y-6.125
X6.0001Y-6.7744
X6.0001Y-6.7744
X6.0965Y-5.3708
X6.0965Y-5.3708
X6.2584Y-6.0203
X6.2584Y-6.0203
X6.4203Y-6.6697
X6.4203Y-6.6697
X6.7606Y-4.7817
X6.7606Y-4.7817
X6.8073Y-5.4494
X6.8073Y-5.4494
X6.854Y-6.117
X6.854Y-6.117
X7.1926Y-4.7515
X7.1926Y-4.7515
X7.2393Y-5.4192
X7.2393Y-5.4192
X7.286Y-6.0868
X7.286Y-6.0868
X7.7197Y-4.5078
X7.7197Y-4.5078
X7.7314Y-5.177
X7.7314Y-5.177
X7.7431Y-5.8462
X7.7431Y-5.8462
X8.1527Y-4.5002
X8.1527Y-4.5002
X8.1644Y-5.1694
X8.1644Y-5.1694
X8.1761Y-5.8386
X8.1761Y-5.8386
X8.5344Y-4.7263
X8.5344Y-4.7263
X8.5344Y-5.3955
X8.5344Y-5.3955
X8.5344Y-6.0648
X8.5344Y-6.0648
X8.9675Y-4.7263
X8.9675Y-4.7263
X8.9675Y-5.3955
X8.9675Y-5.3955
X8.9675Y-6.0648
X8.9675Y-6.0648
X9.1723Y-7.0075
X9.1723Y-7.0075
X9.2431Y-4.7263
X9.2431Y-4.7263
X9.2431Y-5.3955
X9.2431Y-5.3955
X9.2431Y-6.0648
X9.2431Y-6.0648
X9.5474Y-7.224
X9.5474Y-7.224
X9.6762Y-4.7263
X9.6762Y-4.7263
X9.6762Y-5.3955
X9.6762Y-5.3955
X9.6762Y-6.0648
X9.6762Y-6.0648
X9.8085Y-7.4028
X9.8085Y-7.4028
X10.1675Y-7.6449
X10.1675Y-7.6449
X10.4155Y-7.8415
X10.4155Y-7.8415
X10.7567Y-8.1081
X10.7567Y-8.1081
T3
X5.6597Y-5.3276
X5.8216Y-5.977
X5.8297Y-5.1959
X5.8297Y-5.1959
X5.9835Y-6.6264
X5.9916Y-5.8453
X5.9916Y-5.8453
X6.0417Y-5.2324
X6.1536Y-6.4948
X6.1536Y-6.4948
X6.2036Y-5.8818
X6.3655Y-6.5312
X6.77Y-4.6331
X6.8166Y-5.3007
X6.8633Y-5.9684
X6.9603Y-4.5329
X6.9603Y-4.5329
X7.007Y-5.2006
X7.007Y-5.2006
X7.0537Y-5.8682
X7.0537Y-5.8682
X7.1627Y-4.6056
X7.2094Y-5.2733
X7.2561Y-5.9409
X7.7368Y-4.3598
X7.7485Y-5.029
X7.7602Y-5.6982
X7.9321Y-4.2698
X7.9321Y-4.2698
X7.9438Y-4.939
X7.9438Y-4.939
X7.9555Y-5.6082
X7.9555Y-5.6082
X8.1305Y-4.353
X8.1421Y-5.0222
X8.1538Y-5.6913
X8.5541Y-4.5786
X8.5541Y-5.2479
X8.5541Y-5.9172
X8.751Y-4.492
X8.751Y-4.492
X8.751Y-5.1613
X8.751Y-5.1613
X8.751Y-5.8306
X8.751Y-5.8306
X8.9478Y-4.5786
X8.9478Y-5.2479
X8.9478Y-5.9172
X9.2628Y-4.5786
X9.2628Y-5.2479
X9.2628Y-5.9172
X9.2632Y-6.8895
X9.4596Y-4.492
X9.4596Y-4.492
X9.4596Y-5.1613
X9.4596Y-5.1613
X9.4596Y-5.8306
X9.4596Y-5.8306
X9.477Y-6.9129
X9.477Y-6.9129
X9.6041Y-7.0863
X9.6565Y-4.5786
X9.6565Y-5.2479
X9.6565Y-5.9172
X9.9073Y-7.2914
X10.119Y-7.3297
X10.119Y-7.3297
X10.2337Y-7.5115
X10.5219Y-7.7373
X10.7303Y-7.7902
X10.7303Y-7.7902
X10.8321Y-7.9796
T4
X5.8864Y-5.4232
X5.8864Y-5.4232
X6.0483Y-6.0726
X6.0483Y-6.0726
X6.2102Y-6.722
X6.2102Y-6.722
X6.9766Y-4.7666
X6.9766Y-4.7666
X7.0233Y-5.4343
X7.0233Y-5.4343
X7.07Y-6.1019
X7.07Y-6.1019
X7.9362Y-4.504
X7.9362Y-4.504
X7.9479Y-5.1732
X7.9479Y-5.1732
X7.9596Y-5.8424
X7.9596Y-5.8424
X8.751Y-4.7263
X8.751Y-4.7263
X8.751Y-5.3955
X8.751Y-5.3955
X8.751Y-6.0648
X8.751Y-6.0648
X9.3598Y-7.1157
X9.3598Y-7.1157
X9.4596Y-4.7263
X9.4596Y-4.7263
X9.4596Y-5.3955
X9.4596Y-5.3955
X9.4596Y-6.0648
X9.4596Y-6.0648
X9.988Y-7.5239
X9.988Y-7.5239
X10.5861Y-7.9748
X10.5861Y-7.9748
T0
M30
