%TF.GenerationSoftware,KiCad,Pcbnew,(6.0.5)*%
%TF.CreationDate,2022-05-07T21:13:44-04:00*%
%TF.ProjectId,main,6d61696e-2e6b-4696-9361-645f70636258,VERSION_HERE*%
%TF.SameCoordinates,Original*%
%TF.FileFunction,Paste,Bot*%
%TF.FilePolarity,Positive*%
%FSLAX46Y46*%
G04 Gerber Fmt 4.6, Leading zero omitted, Abs format (unit mm)*
G04 Created by KiCad (PCBNEW (6.0.5)) date 2022-05-07 21:13:44*
%MOMM*%
%LPD*%
G01*
G04 APERTURE LIST*
G04 Aperture macros list*
%AMRotRect*
0 Rectangle, with rotation*
0 The origin of the aperture is its center*
0 $1 length*
0 $2 width*
0 $3 Rotation angle, in degrees counterclockwise*
0 Add horizontal line*
21,1,$1,$2,0,0,$3*%
G04 Aperture macros list end*
%ADD10RotRect,2.600000X2.600000X14.000000*%
%ADD11RotRect,2.600000X2.600000X4.000000*%
%ADD12RotRect,2.600000X2.600000X1.000000*%
%ADD13R,2.600000X2.600000*%
%ADD14RotRect,2.600000X2.600000X330.000000*%
%ADD15RotRect,2.600000X2.600000X326.000000*%
%ADD16RotRect,2.600000X2.600000X322.000000*%
%ADD17R,1.000000X0.800000*%
%ADD18R,0.700000X1.500000*%
G04 APERTURE END LIST*
D10*
%TO.C,S1*%
X164861957Y-165099454D03*
X153122813Y-165759002D03*
%TD*%
%TO.C,S3*%
X160749285Y-148604427D03*
X149010141Y-149263975D03*
%TD*%
%TO.C,S5*%
X156636612Y-132109399D03*
X144897468Y-132768947D03*
%TD*%
D11*
%TO.C,S7*%
X187571397Y-150670862D03*
X175896068Y-149281908D03*
%TD*%
%TO.C,S9*%
X186385537Y-133712274D03*
X174710208Y-132323320D03*
%TD*%
%TO.C,S11*%
X185199677Y-116753685D03*
X173524348Y-115364731D03*
%TD*%
D12*
%TO.C,S13*%
X210381625Y-144502895D03*
X198794989Y-142504806D03*
%TD*%
%TO.C,S15*%
X210084934Y-127505484D03*
X198498298Y-125507395D03*
%TD*%
%TO.C,S17*%
X209788243Y-110508074D03*
X198201607Y-108509985D03*
%TD*%
D13*
%TO.C,S19*%
X230550000Y-150296781D03*
X219000000Y-148096781D03*
%TD*%
%TO.C,S21*%
X230550000Y-133296781D03*
X219000000Y-131096781D03*
%TD*%
%TO.C,S23*%
X230550000Y-116296781D03*
X219000000Y-114096781D03*
%TD*%
%TO.C,S25*%
X248550000Y-150296781D03*
X237000000Y-148096781D03*
%TD*%
%TO.C,S27*%
X248550000Y-133296781D03*
X237000000Y-131096781D03*
%TD*%
%TO.C,S29*%
X248550000Y-116296781D03*
X237000000Y-114096781D03*
%TD*%
D14*
%TO.C,S31*%
X246781327Y-181629872D03*
X237878734Y-173949616D03*
%TD*%
D15*
%TO.C,S33*%
X262651709Y-192624422D03*
X254306550Y-184341862D03*
%TD*%
D16*
%TO.C,S35*%
X277716491Y-204699253D03*
X269969422Y-195854740D03*
%TD*%
D17*
%TO.C,*%
X248339967Y-101744967D03*
X255639967Y-101744967D03*
X255639967Y-99534967D03*
X248339967Y-99534967D03*
D18*
X254239967Y-102394967D03*
X252739967Y-102394967D03*
X249739967Y-102394967D03*
%TD*%
M02*
