%TF.GenerationSoftware,KiCad,Pcbnew,(6.0.5)*%
%TF.CreationDate,2022-05-07T22:58:46-04:00*%
%TF.ProjectId,main,6d61696e-2e6b-4696-9361-645f70636258,VERSION_HERE*%
%TF.SameCoordinates,Original*%
%TF.FileFunction,Paste,Top*%
%TF.FilePolarity,Positive*%
%FSLAX46Y46*%
G04 Gerber Fmt 4.6, Leading zero omitted, Abs format (unit mm)*
G04 Created by KiCad (PCBNEW (6.0.5)) date 2022-05-07 22:58:46*
%MOMM*%
%LPD*%
G01*
G04 APERTURE LIST*
G04 Aperture macros list*
%AMRotRect*
0 Rectangle, with rotation*
0 The origin of the aperture is its center*
0 $1 length*
0 $2 width*
0 $3 Rotation angle, in degrees counterclockwise*
0 Add horizontal line*
21,1,$1,$2,0,0,$3*%
G04 Aperture macros list end*
%ADD10R,1.000000X0.800000*%
%ADD11R,0.700000X1.500000*%
%ADD12RotRect,2.600000X2.600000X322.000000*%
%ADD13RotRect,2.600000X2.600000X326.000000*%
%ADD14RotRect,2.600000X2.600000X4.000000*%
%ADD15RotRect,2.600000X2.600000X1.000000*%
%ADD16RotRect,2.600000X2.600000X330.000000*%
%ADD17RotRect,2.600000X2.600000X14.000000*%
%ADD18R,2.600000X2.600000*%
G04 APERTURE END LIST*
D10*
%TO.C,*%
X255639967Y-99534967D03*
X248339967Y-99534967D03*
X248339967Y-101744967D03*
X255639967Y-101744967D03*
D11*
X254239967Y-102394967D03*
X251239967Y-102394967D03*
X249739967Y-102394967D03*
%TD*%
D12*
%TO.C,S35*%
X275130892Y-199887322D03*
X264674913Y-194510056D03*
%TD*%
D13*
%TO.C,S33*%
X259736746Y-188004575D03*
X248931137Y-183369780D03*
%TD*%
D14*
%TO.C,S11*%
X180058392Y-114907826D03*
X168689992Y-117908155D03*
%TD*%
D15*
%TO.C,S15*%
X205047300Y-125393082D03*
X193537455Y-127794322D03*
%TD*%
D16*
%TO.C,S31*%
X243551200Y-177224616D03*
X232448607Y-173354872D03*
%TD*%
D14*
%TO.C,S9*%
X181244252Y-131866415D03*
X169875852Y-134866744D03*
%TD*%
D17*
%TO.C,S1*%
X159478250Y-164174413D03*
X148803563Y-169103262D03*
%TD*%
%TO.C,S5*%
X151252905Y-131184358D03*
X140578218Y-136113207D03*
%TD*%
D18*
%TO.C,S27*%
X243550000Y-131096781D03*
X232000000Y-133296781D03*
%TD*%
D15*
%TO.C,S13*%
X205343991Y-142390493D03*
X193834146Y-144791733D03*
%TD*%
D17*
%TO.C,S3*%
X155365578Y-147679386D03*
X144690891Y-152608235D03*
%TD*%
D14*
%TO.C,S7*%
X182430112Y-148825003D03*
X171061712Y-151825332D03*
%TD*%
D18*
%TO.C,S29*%
X243550000Y-114096781D03*
X232000000Y-116296781D03*
%TD*%
D15*
%TO.C,S17*%
X204750609Y-108395672D03*
X193240764Y-110796912D03*
%TD*%
D18*
%TO.C,S25*%
X243550000Y-148096781D03*
X232000000Y-150296781D03*
%TD*%
%TO.C,S19*%
X225550000Y-148096781D03*
X214000000Y-150296781D03*
%TD*%
%TO.C,S21*%
X225550000Y-131096781D03*
X214000000Y-133296781D03*
%TD*%
%TO.C,S23*%
X225550000Y-114096781D03*
X214000000Y-116296781D03*
%TD*%
M02*
