M48
; DRILL file {KiCad (6.0.5)} date Sat May  7 22:58:40 2022
; FORMAT={-:-/ absolute / metric / decimal}
; #@! TF.CreationDate,2022-05-07T22:58:40-04:00
; #@! TF.GenerationSoftware,Kicad,Pcbnew,(6.0.5)
; #@! TF.FileFunction,NonPlated,1,2,NPTH
FMAT,2
METRIC
; #@! TA.AperFunction,NonPlated,NPTH,ComponentDrill
T1C0.900
; #@! TA.AperFunction,NonPlated,NPTH,ComponentDrill
T2C1.702
; #@! TA.AperFunction,NonPlated,NPTH,ComponentDrill
T3C3.000
; #@! TA.AperFunction,NonPlated,NPTH,ComponentDrill
T4C3.429
%
G90
G05
T1
X250.49Y-100.635
X250.49Y-100.635
X253.49Y-100.635
X253.49Y-100.635
T2
X144.178Y-139.08
X144.178Y-139.08
X148.291Y-155.576
X148.291Y-155.576
X152.403Y-172.071
X152.403Y-172.071
X154.851Y-136.419
X154.851Y-136.419
X158.964Y-152.914
X158.964Y-152.914
X163.077Y-169.409
X163.077Y-169.409
X171.72Y-121.455
X171.72Y-121.455
X172.906Y-138.414
X172.906Y-138.414
X174.092Y-155.373
X174.092Y-155.373
X182.693Y-120.688
X182.693Y-120.688
X183.879Y-137.647
X183.879Y-137.647
X185.065Y-154.605
X185.065Y-154.605
X196.081Y-114.498
X196.081Y-114.498
X196.377Y-131.495
X196.377Y-131.495
X196.674Y-148.493
X196.674Y-148.493
X207.079Y-114.306
X207.079Y-114.306
X207.376Y-131.303
X207.376Y-131.303
X207.672Y-148.301
X207.672Y-148.301
X216.775Y-120.047
X216.775Y-120.047
X216.775Y-137.047
X216.775Y-137.047
X216.775Y-154.047
X216.775Y-154.047
X227.775Y-120.047
X227.775Y-120.047
X227.775Y-137.047
X227.775Y-137.047
X227.775Y-154.047
X227.775Y-154.047
X232.977Y-177.99
X232.977Y-177.99
X234.775Y-120.047
X234.775Y-120.047
X234.775Y-137.047
X234.775Y-137.047
X234.775Y-154.047
X234.775Y-154.047
X242.503Y-183.49
X242.503Y-183.49
X245.775Y-120.047
X245.775Y-120.047
X245.775Y-137.047
X245.775Y-137.047
X245.775Y-154.047
X245.775Y-154.047
X249.135Y-188.03
X249.135Y-188.03
X258.254Y-194.182
X258.254Y-194.182
X264.553Y-199.174
X264.553Y-199.174
X273.221Y-205.946
X273.221Y-205.946
T3
X143.756Y-135.321
X147.869Y-151.816
X148.075Y-131.977
X148.075Y-131.977
X151.981Y-168.311
X152.188Y-148.472
X152.188Y-148.472
X153.459Y-132.902
X156.301Y-164.967
X156.301Y-164.967
X157.572Y-149.397
X161.684Y-165.892
X171.957Y-117.68
X173.143Y-134.638
X174.329Y-151.597
X176.791Y-115.136
X176.791Y-115.136
X177.977Y-132.095
X177.977Y-132.095
X179.163Y-149.053
X179.163Y-149.053
X181.933Y-116.982
X183.119Y-133.941
X184.304Y-150.899
X196.515Y-110.74
X196.812Y-127.737
X197.109Y-144.735
X201.476Y-108.453
X201.476Y-108.453
X201.773Y-125.45
X201.773Y-125.45
X202.069Y-142.448
X202.069Y-142.448
X206.514Y-110.565
X206.81Y-127.563
X207.107Y-144.56
X217.275Y-116.297
X217.275Y-133.297
X217.275Y-150.297
X222.275Y-114.097
X222.275Y-114.097
X222.275Y-131.097
X222.275Y-131.097
X222.275Y-148.097
X222.275Y-148.097
X227.275Y-116.297
X227.275Y-133.297
X227.275Y-150.297
X235.275Y-116.297
X235.275Y-133.297
X235.275Y-150.297
X235.285Y-174.992
X240.275Y-114.097
X240.275Y-114.097
X240.275Y-131.097
X240.275Y-131.097
X240.275Y-148.097
X240.275Y-148.097
X240.715Y-175.587
X240.715Y-175.587
X243.945Y-179.992
X245.275Y-116.297
X245.275Y-133.297
X245.275Y-150.297
X251.646Y-185.201
X257.022Y-186.173
X257.022Y-186.173
X259.937Y-190.793
X267.256Y-196.526
X272.55Y-197.871
X272.55Y-197.871
X275.136Y-202.683
T4
X149.515Y-137.75
X149.515Y-137.75
X153.627Y-154.245
X153.627Y-154.245
X157.74Y-170.74
X157.74Y-170.74
X177.206Y-121.072
X177.206Y-121.072
X178.392Y-138.03
X178.392Y-138.03
X179.578Y-154.989
X179.578Y-154.989
X201.58Y-114.402
X201.58Y-114.402
X201.877Y-131.399
X201.877Y-131.399
X202.173Y-148.397
X202.173Y-148.397
X222.275Y-120.047
X222.275Y-120.047
X222.275Y-137.047
X222.275Y-137.047
X222.275Y-154.047
X222.275Y-154.047
X237.74Y-180.74
X237.74Y-180.74
X240.275Y-120.047
X240.275Y-120.047
X240.275Y-137.047
X240.275Y-137.047
X240.275Y-154.047
X240.275Y-154.047
X253.694Y-191.106
X253.694Y-191.106
X268.887Y-202.56
X268.887Y-202.56
T0
M30
