%TF.GenerationSoftware,KiCad,Pcbnew,(6.0.5)*%
%TF.CreationDate,2022-05-07T22:58:46-04:00*%
%TF.ProjectId,main,6d61696e-2e6b-4696-9361-645f70636258,VERSION_HERE*%
%TF.SameCoordinates,Original*%
%TF.FileFunction,OtherDrawing,Comment*%
%FSLAX46Y46*%
G04 Gerber Fmt 4.6, Leading zero omitted, Abs format (unit mm)*
G04 Created by KiCad (PCBNEW (6.0.5)) date 2022-05-07 22:58:46*
%MOMM*%
%LPD*%
G01*
G04 APERTURE LIST*
%ADD10C,0.150000*%
G04 APERTURE END LIST*
D10*
%TO.C,S16*%
X208980289Y-137276251D02*
X208997742Y-138276099D01*
X194772993Y-125522413D02*
X194755540Y-124522565D01*
X192729666Y-123057698D02*
X210726925Y-122743555D01*
X210726925Y-122743555D02*
X211023616Y-139740966D01*
X208753408Y-124278231D02*
X207753560Y-124295684D01*
X207997894Y-138293551D02*
X208997742Y-138276099D01*
X193026357Y-140055109D02*
X192729666Y-123057698D01*
X195755388Y-124505113D02*
X194755540Y-124522565D01*
X194999874Y-138520433D02*
X195999722Y-138502980D01*
X208753408Y-124278231D02*
X208770860Y-125278079D01*
X211023616Y-139740966D02*
X193026357Y-140055109D01*
X194999874Y-138520433D02*
X194982422Y-137520585D01*
%TO.C,S35*%
X270745945Y-214798740D02*
X256561752Y-203716833D01*
X268468537Y-193349651D02*
X267680526Y-192733989D01*
X269305405Y-211769739D02*
X270093416Y-212385401D01*
X267027997Y-190320650D02*
X281212190Y-201402557D01*
X278712677Y-201353250D02*
X278097015Y-202141261D01*
X267064865Y-193522000D02*
X267680526Y-192733989D01*
X281212190Y-201402557D02*
X270745945Y-214798740D01*
X259061265Y-203766140D02*
X259676927Y-202978129D01*
X259061265Y-203766140D02*
X259849276Y-204381801D01*
X278712677Y-201353250D02*
X277924666Y-200737589D01*
X256561752Y-203716833D02*
X267027997Y-190320650D01*
X270709077Y-211597390D02*
X270093416Y-212385401D01*
%TO.C,S28*%
X247275000Y-130046781D02*
X247275000Y-131046781D01*
X231275000Y-145546781D02*
X231275000Y-128546781D01*
X233275000Y-144046781D02*
X233275000Y-143046781D01*
X249275000Y-128546781D02*
X249275000Y-145546781D01*
X247275000Y-130046781D02*
X246275000Y-130046781D01*
X233275000Y-144046781D02*
X234275000Y-144046781D01*
X246275000Y-144046781D02*
X247275000Y-144046781D01*
X247275000Y-143046781D02*
X247275000Y-144046781D01*
X233275000Y-131046781D02*
X233275000Y-130046781D01*
X249275000Y-145546781D02*
X231275000Y-145546781D01*
X234275000Y-130046781D02*
X233275000Y-130046781D01*
X231275000Y-128546781D02*
X249275000Y-128546781D01*
%TO.C,S12*%
X186777427Y-128923271D02*
X168821275Y-130178888D01*
X169804934Y-115574696D02*
X169735177Y-114577132D01*
X185591567Y-111964682D02*
X186777427Y-128923271D01*
X170711768Y-128543029D02*
X171709332Y-128473272D01*
X170732741Y-114507375D02*
X169735177Y-114577132D01*
X170711768Y-128543029D02*
X170642011Y-127545465D01*
X183680101Y-127636195D02*
X184677665Y-127566438D01*
X167635415Y-113220299D02*
X185591567Y-111964682D01*
X168821275Y-130178888D02*
X167635415Y-113220299D01*
X184607908Y-126568874D02*
X184677665Y-127566438D01*
X183701074Y-113600541D02*
X182703510Y-113670298D01*
X183701074Y-113600541D02*
X183770831Y-114598105D01*
%TO.C,S30*%
X231275000Y-128546781D02*
X231275000Y-111546781D01*
X233275000Y-127046781D02*
X233275000Y-126046781D01*
X231275000Y-111546781D02*
X249275000Y-111546781D01*
X233275000Y-114046781D02*
X233275000Y-113046781D01*
X234275000Y-113046781D02*
X233275000Y-113046781D01*
X247275000Y-113046781D02*
X247275000Y-114046781D01*
X249275000Y-111546781D02*
X249275000Y-128546781D01*
X247275000Y-113046781D02*
X246275000Y-113046781D01*
X246275000Y-127046781D02*
X247275000Y-127046781D01*
X233275000Y-127046781D02*
X234275000Y-127046781D01*
X249275000Y-128546781D02*
X231275000Y-128546781D01*
X247275000Y-126046781D02*
X247275000Y-127046781D01*
%TO.C,S33*%
X256142556Y-199994568D02*
X255583363Y-200823605D01*
X243976837Y-192994905D02*
X244536030Y-192165867D01*
X265908928Y-189091909D02*
X256402648Y-203185547D01*
X252634575Y-181947572D02*
X251805537Y-181388379D01*
X251246344Y-182217416D02*
X251805537Y-181388379D01*
X241479972Y-193120075D02*
X250986252Y-179026437D01*
X250986252Y-179026437D02*
X265908928Y-189091909D01*
X263412063Y-189217079D02*
X262583026Y-188657886D01*
X254754325Y-200264412D02*
X255583363Y-200823605D01*
X243976837Y-192994905D02*
X244805874Y-193554098D01*
X256402648Y-203185547D02*
X241479972Y-193120075D01*
X263412063Y-189217079D02*
X262852870Y-190046117D01*
%TO.C,S11*%
X183701074Y-113600541D02*
X183770831Y-114598105D01*
X170711768Y-128543029D02*
X171709332Y-128473272D01*
X185591567Y-111964682D02*
X186777427Y-128923271D01*
X167635415Y-113220299D02*
X185591567Y-111964682D01*
X184607908Y-126568874D02*
X184677665Y-127566438D01*
X183701074Y-113600541D02*
X182703510Y-113670298D01*
X170732741Y-114507375D02*
X169735177Y-114577132D01*
X183680101Y-127636195D02*
X184677665Y-127566438D01*
X170711768Y-128543029D02*
X170642011Y-127545465D01*
X168821275Y-130178888D02*
X167635415Y-113220299D01*
X169804934Y-115574696D02*
X169735177Y-114577132D01*
X186777427Y-128923271D02*
X168821275Y-130178888D01*
%TO.C,S15*%
X208753408Y-124278231D02*
X208770860Y-125278079D01*
X193026357Y-140055109D02*
X192729666Y-123057698D01*
X195755388Y-124505113D02*
X194755540Y-124522565D01*
X208753408Y-124278231D02*
X207753560Y-124295684D01*
X207997894Y-138293551D02*
X208997742Y-138276099D01*
X210726925Y-122743555D02*
X211023616Y-139740966D01*
X194999874Y-138520433D02*
X195999722Y-138502980D01*
X194772993Y-125522413D02*
X194755540Y-124522565D01*
X211023616Y-139740966D02*
X193026357Y-140055109D01*
X194999874Y-138520433D02*
X194982422Y-137520585D01*
X192729666Y-123057698D02*
X210726925Y-122743555D01*
X208980289Y-137276251D02*
X208997742Y-138276099D01*
%TO.C,S31*%
X225695738Y-183601183D02*
X234195738Y-168878751D01*
X239436119Y-189802145D02*
X240302145Y-190302145D01*
X228177789Y-183302145D02*
X229043815Y-183802145D01*
X234677789Y-172043815D02*
X235177789Y-171177789D01*
X241284196Y-192601183D02*
X225695738Y-183601183D01*
X236043815Y-171677789D02*
X235177789Y-171177789D01*
X240802145Y-189436119D02*
X240302145Y-190302145D01*
X249784196Y-177878751D02*
X241284196Y-192601183D01*
X228177789Y-183302145D02*
X228677789Y-182436119D01*
X247302145Y-178177789D02*
X246802145Y-179043815D01*
X247302145Y-178177789D02*
X246436119Y-177677789D01*
X234195738Y-168878751D02*
X249784196Y-177878751D01*
%TO.C,S8*%
X186051821Y-161553372D02*
X187049385Y-161483615D01*
X172176654Y-149491873D02*
X172106897Y-148494309D01*
X186072794Y-147517718D02*
X186142551Y-148515282D01*
X173104461Y-148424552D02*
X172106897Y-148494309D01*
X170007135Y-147137476D02*
X187963287Y-145881859D01*
X187963287Y-145881859D02*
X189149147Y-162840448D01*
X173083488Y-162460206D02*
X173013731Y-161462642D01*
X171192995Y-164096065D02*
X170007135Y-147137476D01*
X186979628Y-160486051D02*
X187049385Y-161483615D01*
X186072794Y-147517718D02*
X185075230Y-147587475D01*
X189149147Y-162840448D02*
X171192995Y-164096065D01*
X173083488Y-162460206D02*
X174081052Y-162390449D01*
%TO.C,S9*%
X187963287Y-145881860D02*
X170007135Y-147137477D01*
X184865961Y-144594784D02*
X185863525Y-144525027D01*
X170990794Y-132533285D02*
X170921037Y-131535721D01*
X171918601Y-131465964D02*
X170921037Y-131535721D01*
X171897628Y-145501618D02*
X171827871Y-144504054D01*
X170007135Y-147137477D02*
X168821275Y-130178888D01*
X184886934Y-130559130D02*
X183889370Y-130628887D01*
X186777427Y-128923271D02*
X187963287Y-145881860D01*
X184886934Y-130559130D02*
X184956691Y-131556694D01*
X168821275Y-130178888D02*
X186777427Y-128923271D01*
X171897628Y-145501618D02*
X172895192Y-145431861D01*
X185793768Y-143527463D02*
X185863525Y-144525027D01*
%TO.C,S1*%
X168528965Y-176810184D02*
X151063642Y-181164778D01*
X165255195Y-176080506D02*
X166225490Y-175838584D01*
X164416292Y-160315156D02*
X168528965Y-176810184D01*
X165983568Y-174868288D02*
X166225490Y-175838584D01*
X150224739Y-165399428D02*
X149254444Y-165641350D01*
X146950969Y-164669750D02*
X164416292Y-160315156D01*
X152641350Y-179225490D02*
X152399428Y-178255195D01*
X162838584Y-162254444D02*
X161868288Y-162496366D01*
X152641350Y-179225490D02*
X153611646Y-178983568D01*
X149496366Y-166611646D02*
X149254444Y-165641350D01*
X151063642Y-181164778D02*
X146950969Y-164669750D01*
X162838584Y-162254444D02*
X163080506Y-163224739D01*
%TO.C,S20*%
X228275000Y-161046781D02*
X229275000Y-161046781D01*
X231275000Y-162546781D02*
X213275000Y-162546781D01*
X229275000Y-160046781D02*
X229275000Y-161046781D01*
X229275000Y-147046781D02*
X228275000Y-147046781D01*
X216275000Y-147046781D02*
X215275000Y-147046781D01*
X213275000Y-145546781D02*
X231275000Y-145546781D01*
X231275000Y-145546781D02*
X231275000Y-162546781D01*
X215275000Y-161046781D02*
X215275000Y-160046781D01*
X215275000Y-161046781D02*
X216275000Y-161046781D01*
X213275000Y-162546781D02*
X213275000Y-145546781D01*
X215275000Y-148046781D02*
X215275000Y-147046781D01*
X229275000Y-147046781D02*
X229275000Y-148046781D01*
%TO.C,S5*%
X156190947Y-127325101D02*
X160303620Y-143820129D01*
X144416005Y-146235435D02*
X145386301Y-145993513D01*
X154613239Y-129264389D02*
X154855161Y-130234684D01*
X160303620Y-143820129D02*
X142838297Y-148174723D01*
X157029850Y-143090451D02*
X158000145Y-142848529D01*
X138725624Y-131679695D02*
X156190947Y-127325101D01*
X154613239Y-129264389D02*
X153642943Y-129506311D01*
X157758223Y-141878233D02*
X158000145Y-142848529D01*
X142838297Y-148174723D02*
X138725624Y-131679695D01*
X144416005Y-146235435D02*
X144174083Y-145265140D01*
X141271021Y-133621591D02*
X141029099Y-132651295D01*
X141999394Y-132409373D02*
X141029099Y-132651295D01*
%TO.C,S27*%
X234275000Y-130046781D02*
X233275000Y-130046781D01*
X247275000Y-130046781D02*
X246275000Y-130046781D01*
X247275000Y-130046781D02*
X247275000Y-131046781D01*
X249275000Y-145546781D02*
X231275000Y-145546781D01*
X249275000Y-128546781D02*
X249275000Y-145546781D01*
X246275000Y-144046781D02*
X247275000Y-144046781D01*
X233275000Y-131046781D02*
X233275000Y-130046781D01*
X233275000Y-144046781D02*
X234275000Y-144046781D01*
X231275000Y-145546781D02*
X231275000Y-128546781D01*
X233275000Y-144046781D02*
X233275000Y-143046781D01*
X247275000Y-143046781D02*
X247275000Y-144046781D01*
X231275000Y-128546781D02*
X249275000Y-128546781D01*
%TO.C,S14*%
X195296565Y-155517844D02*
X196296413Y-155500391D01*
X211320307Y-156738377D02*
X193323048Y-157052520D01*
X209050099Y-141275642D02*
X209067551Y-142275490D01*
X196052079Y-141502524D02*
X195052231Y-141519976D01*
X209276980Y-154273662D02*
X209294433Y-155273510D01*
X193323048Y-157052520D02*
X193026357Y-140055109D01*
X211023616Y-139740966D02*
X211320307Y-156738377D01*
X209050099Y-141275642D02*
X208050251Y-141293095D01*
X193026357Y-140055109D02*
X211023616Y-139740966D01*
X208294585Y-155290962D02*
X209294433Y-155273510D01*
X195296565Y-155517844D02*
X195279113Y-154517996D01*
X195069684Y-142519824D02*
X195052231Y-141519976D01*
%TO.C,S22*%
X215275000Y-144046781D02*
X215275000Y-143046781D01*
X231275000Y-145546781D02*
X213275000Y-145546781D01*
X231275000Y-128546781D02*
X231275000Y-145546781D01*
X213275000Y-128546781D02*
X231275000Y-128546781D01*
X228275000Y-144046781D02*
X229275000Y-144046781D01*
X215275000Y-144046781D02*
X216275000Y-144046781D01*
X215275000Y-131046781D02*
X215275000Y-130046781D01*
X213275000Y-145546781D02*
X213275000Y-128546781D01*
X229275000Y-130046781D02*
X229275000Y-131046781D01*
X229275000Y-143046781D02*
X229275000Y-144046781D01*
X229275000Y-130046781D02*
X228275000Y-130046781D01*
X216275000Y-130046781D02*
X215275000Y-130046781D01*
%TO.C,MCU1*%
X266429967Y-98685967D02*
X274049967Y-98685967D01*
X274049967Y-98685967D02*
X274049967Y-103765967D01*
X266429967Y-103765967D02*
X266429967Y-98685967D01*
X274049967Y-103765967D02*
X266429967Y-103765967D01*
%TO.C,S13*%
X211320307Y-156738377D02*
X193323048Y-157052520D01*
X209050099Y-141275642D02*
X208050251Y-141293095D01*
X209276980Y-154273662D02*
X209294433Y-155273510D01*
X196052079Y-141502524D02*
X195052231Y-141519976D01*
X209050099Y-141275642D02*
X209067551Y-142275490D01*
X195296565Y-155517844D02*
X195279113Y-154517996D01*
X195069684Y-142519824D02*
X195052231Y-141519976D01*
X193026357Y-140055109D02*
X211023616Y-139740966D01*
X211023616Y-139740966D02*
X211320307Y-156738377D01*
X195296565Y-155517844D02*
X196296413Y-155500391D01*
X193323048Y-157052520D02*
X193026357Y-140055109D01*
X208294585Y-155290962D02*
X209294433Y-155273510D01*
%TO.C,S3*%
X161142523Y-159585479D02*
X162112818Y-159343557D01*
X160303620Y-143820129D02*
X164416293Y-160315157D01*
X145383694Y-150116619D02*
X145141772Y-149146323D01*
X142838297Y-148174723D02*
X160303620Y-143820129D01*
X158725912Y-145759417D02*
X158967834Y-146729712D01*
X146950970Y-164669751D02*
X142838297Y-148174723D01*
X164416293Y-160315157D02*
X146950970Y-164669751D01*
X148528678Y-162730463D02*
X148286756Y-161760168D01*
X148528678Y-162730463D02*
X149498974Y-162488541D01*
X158725912Y-145759417D02*
X157755616Y-146001339D01*
X146112067Y-148904401D02*
X145141772Y-149146323D01*
X161870896Y-158373261D02*
X162112818Y-159343557D01*
%TO.C,S7*%
X186072794Y-147517718D02*
X186142551Y-148515282D01*
X186979628Y-160486051D02*
X187049385Y-161483615D01*
X170007135Y-147137476D02*
X187963287Y-145881859D01*
X171192995Y-164096065D02*
X170007135Y-147137476D01*
X173083488Y-162460206D02*
X173013731Y-161462642D01*
X173104461Y-148424552D02*
X172106897Y-148494309D01*
X186051821Y-161553372D02*
X187049385Y-161483615D01*
X187963287Y-145881859D02*
X189149147Y-162840448D01*
X189149147Y-162840448D02*
X171192995Y-164096065D01*
X186072794Y-147517718D02*
X185075230Y-147587475D01*
X172176654Y-149491873D02*
X172106897Y-148494309D01*
X173083488Y-162460206D02*
X174081052Y-162390449D01*
%TO.C,S4*%
X164416293Y-160315157D02*
X146950970Y-164669751D01*
X161142523Y-159585479D02*
X162112818Y-159343557D01*
X148528678Y-162730463D02*
X149498974Y-162488541D01*
X160303620Y-143820129D02*
X164416293Y-160315157D01*
X158725912Y-145759417D02*
X158967834Y-146729712D01*
X158725912Y-145759417D02*
X157755616Y-146001339D01*
X142838297Y-148174723D02*
X160303620Y-143820129D01*
X148528678Y-162730463D02*
X148286756Y-161760168D01*
X146950970Y-164669751D02*
X142838297Y-148174723D01*
X146112067Y-148904401D02*
X145141772Y-149146323D01*
X161870896Y-158373261D02*
X162112818Y-159343557D01*
X145383694Y-150116619D02*
X145141772Y-149146323D01*
%TO.C,S29*%
X233275000Y-114046781D02*
X233275000Y-113046781D01*
X247275000Y-113046781D02*
X246275000Y-113046781D01*
X234275000Y-113046781D02*
X233275000Y-113046781D01*
X247275000Y-113046781D02*
X247275000Y-114046781D01*
X249275000Y-111546781D02*
X249275000Y-128546781D01*
X233275000Y-127046781D02*
X233275000Y-126046781D01*
X231275000Y-128546781D02*
X231275000Y-111546781D01*
X247275000Y-126046781D02*
X247275000Y-127046781D01*
X246275000Y-127046781D02*
X247275000Y-127046781D01*
X233275000Y-127046781D02*
X234275000Y-127046781D01*
X249275000Y-128546781D02*
X231275000Y-128546781D01*
X231275000Y-111546781D02*
X249275000Y-111546781D01*
%TO.C,S17*%
X210726925Y-122743556D02*
X192729666Y-123057699D01*
X192432975Y-106060288D02*
X210430234Y-105746145D01*
X194703183Y-121523023D02*
X195703031Y-121505570D01*
X208683598Y-120278841D02*
X208701051Y-121278689D01*
X208456717Y-107280821D02*
X208474169Y-108280669D01*
X192729666Y-123057699D02*
X192432975Y-106060288D01*
X195458697Y-107507703D02*
X194458849Y-107525155D01*
X194476302Y-108525003D02*
X194458849Y-107525155D01*
X194703183Y-121523023D02*
X194685731Y-120523175D01*
X207701203Y-121296141D02*
X208701051Y-121278689D01*
X210430234Y-105746145D02*
X210726925Y-122743556D01*
X208456717Y-107280821D02*
X207456869Y-107298274D01*
%TO.C,S25*%
X249275000Y-145546781D02*
X249275000Y-162546781D01*
X247275000Y-160046781D02*
X247275000Y-161046781D01*
X246275000Y-161046781D02*
X247275000Y-161046781D01*
X234275000Y-147046781D02*
X233275000Y-147046781D01*
X247275000Y-147046781D02*
X246275000Y-147046781D01*
X231275000Y-145546781D02*
X249275000Y-145546781D01*
X233275000Y-161046781D02*
X233275000Y-160046781D01*
X233275000Y-148046781D02*
X233275000Y-147046781D01*
X247275000Y-147046781D02*
X247275000Y-148046781D01*
X233275000Y-161046781D02*
X234275000Y-161046781D01*
X231275000Y-162546781D02*
X231275000Y-145546781D01*
X249275000Y-162546781D02*
X231275000Y-162546781D01*
%TO.C,S19*%
X229275000Y-147046781D02*
X228275000Y-147046781D01*
X215275000Y-148046781D02*
X215275000Y-147046781D01*
X231275000Y-145546781D02*
X231275000Y-162546781D01*
X213275000Y-145546781D02*
X231275000Y-145546781D01*
X215275000Y-161046781D02*
X216275000Y-161046781D01*
X229275000Y-147046781D02*
X229275000Y-148046781D01*
X215275000Y-161046781D02*
X215275000Y-160046781D01*
X228275000Y-161046781D02*
X229275000Y-161046781D01*
X216275000Y-147046781D02*
X215275000Y-147046781D01*
X231275000Y-162546781D02*
X213275000Y-162546781D01*
X229275000Y-160046781D02*
X229275000Y-161046781D01*
X213275000Y-162546781D02*
X213275000Y-145546781D01*
%TO.C,S26*%
X249275000Y-162546781D02*
X231275000Y-162546781D01*
X231275000Y-145546781D02*
X249275000Y-145546781D01*
X233275000Y-161046781D02*
X234275000Y-161046781D01*
X246275000Y-161046781D02*
X247275000Y-161046781D01*
X233275000Y-148046781D02*
X233275000Y-147046781D01*
X231275000Y-162546781D02*
X231275000Y-145546781D01*
X233275000Y-161046781D02*
X233275000Y-160046781D01*
X247275000Y-147046781D02*
X246275000Y-147046781D01*
X247275000Y-147046781D02*
X247275000Y-148046781D01*
X247275000Y-160046781D02*
X247275000Y-161046781D01*
X234275000Y-147046781D02*
X233275000Y-147046781D01*
X249275000Y-145546781D02*
X249275000Y-162546781D01*
%TO.C,S2*%
X150224739Y-165399428D02*
X149254444Y-165641350D01*
X162838584Y-162254444D02*
X161868288Y-162496366D01*
X165255195Y-176080506D02*
X166225490Y-175838584D01*
X149496366Y-166611646D02*
X149254444Y-165641350D01*
X168528965Y-176810184D02*
X151063642Y-181164778D01*
X164416292Y-160315156D02*
X168528965Y-176810184D01*
X152641350Y-179225490D02*
X152399428Y-178255195D01*
X151063642Y-181164778D02*
X146950969Y-164669750D01*
X162838584Y-162254444D02*
X163080506Y-163224739D01*
X146950969Y-164669750D02*
X164416292Y-160315156D01*
X165983568Y-174868288D02*
X166225490Y-175838584D01*
X152641350Y-179225490D02*
X153611646Y-178983568D01*
%TO.C,S21*%
X213275000Y-145546781D02*
X213275000Y-128546781D01*
X215275000Y-144046781D02*
X216275000Y-144046781D01*
X215275000Y-144046781D02*
X215275000Y-143046781D01*
X228275000Y-144046781D02*
X229275000Y-144046781D01*
X229275000Y-130046781D02*
X229275000Y-131046781D01*
X215275000Y-131046781D02*
X215275000Y-130046781D01*
X216275000Y-130046781D02*
X215275000Y-130046781D01*
X231275000Y-145546781D02*
X213275000Y-145546781D01*
X231275000Y-128546781D02*
X231275000Y-145546781D01*
X229275000Y-130046781D02*
X228275000Y-130046781D01*
X229275000Y-143046781D02*
X229275000Y-144046781D01*
X213275000Y-128546781D02*
X231275000Y-128546781D01*
%TO.C,S34*%
X243976837Y-192994905D02*
X244536030Y-192165867D01*
X263412063Y-189217079D02*
X262583026Y-188657886D01*
X263412063Y-189217079D02*
X262852870Y-190046117D01*
X251246344Y-182217416D02*
X251805537Y-181388379D01*
X243976837Y-192994905D02*
X244805874Y-193554098D01*
X256142556Y-199994568D02*
X255583363Y-200823605D01*
X254754325Y-200264412D02*
X255583363Y-200823605D01*
X265908928Y-189091909D02*
X256402648Y-203185547D01*
X241479972Y-193120075D02*
X250986252Y-179026437D01*
X250986252Y-179026437D02*
X265908928Y-189091909D01*
X256402648Y-203185547D02*
X241479972Y-193120075D01*
X252634575Y-181947572D02*
X251805537Y-181388379D01*
%TO.C,S36*%
X269305405Y-211769739D02*
X270093416Y-212385401D01*
X270709077Y-211597390D02*
X270093416Y-212385401D01*
X267064865Y-193522000D02*
X267680526Y-192733989D01*
X268468537Y-193349651D02*
X267680526Y-192733989D01*
X278712677Y-201353250D02*
X278097015Y-202141261D01*
X281212190Y-201402557D02*
X270745945Y-214798740D01*
X278712677Y-201353250D02*
X277924666Y-200737589D01*
X256561752Y-203716833D02*
X267027997Y-190320650D01*
X259061265Y-203766140D02*
X259676927Y-202978129D01*
X259061265Y-203766140D02*
X259849276Y-204381801D01*
X270745945Y-214798740D02*
X256561752Y-203716833D01*
X267027997Y-190320650D02*
X281212190Y-201402557D01*
%TO.C,S18*%
X208683598Y-120278841D02*
X208701051Y-121278689D01*
X192729666Y-123057699D02*
X192432975Y-106060288D01*
X194703183Y-121523023D02*
X195703031Y-121505570D01*
X195458697Y-107507703D02*
X194458849Y-107525155D01*
X210726925Y-122743556D02*
X192729666Y-123057699D01*
X208456717Y-107280821D02*
X208474169Y-108280669D01*
X210430234Y-105746145D02*
X210726925Y-122743556D01*
X194476302Y-108525003D02*
X194458849Y-107525155D01*
X208456717Y-107280821D02*
X207456869Y-107298274D01*
X192432975Y-106060288D02*
X210430234Y-105746145D01*
X207701203Y-121296141D02*
X208701051Y-121278689D01*
X194703183Y-121523023D02*
X194685731Y-120523175D01*
%TO.C,S23*%
X215275000Y-127046781D02*
X215275000Y-126046781D01*
X229275000Y-113046781D02*
X228275000Y-113046781D01*
X213275000Y-111546781D02*
X231275000Y-111546781D01*
X228275000Y-127046781D02*
X229275000Y-127046781D01*
X231275000Y-111546781D02*
X231275000Y-128546781D01*
X213275000Y-128546781D02*
X213275000Y-111546781D01*
X229275000Y-113046781D02*
X229275000Y-114046781D01*
X215275000Y-127046781D02*
X216275000Y-127046781D01*
X229275000Y-126046781D02*
X229275000Y-127046781D01*
X231275000Y-128546781D02*
X213275000Y-128546781D01*
X216275000Y-113046781D02*
X215275000Y-113046781D01*
X215275000Y-114046781D02*
X215275000Y-113046781D01*
%TO.C,S10*%
X171918601Y-131465964D02*
X170921037Y-131535721D01*
X170007135Y-147137477D02*
X168821275Y-130178888D01*
X171897628Y-145501618D02*
X172895192Y-145431861D01*
X185793768Y-143527463D02*
X185863525Y-144525027D01*
X184865961Y-144594784D02*
X185863525Y-144525027D01*
X184886934Y-130559130D02*
X184956691Y-131556694D01*
X187963287Y-145881860D02*
X170007135Y-147137477D01*
X184886934Y-130559130D02*
X183889370Y-130628887D01*
X171897628Y-145501618D02*
X171827871Y-144504054D01*
X186777427Y-128923271D02*
X187963287Y-145881860D01*
X168821275Y-130178888D02*
X186777427Y-128923271D01*
X170990794Y-132533285D02*
X170921037Y-131535721D01*
%TO.C,S32*%
X234195738Y-168878751D02*
X249784196Y-177878751D01*
X247302145Y-178177789D02*
X246802145Y-179043815D01*
X239436119Y-189802145D02*
X240302145Y-190302145D01*
X225695738Y-183601183D02*
X234195738Y-168878751D01*
X228177789Y-183302145D02*
X228677789Y-182436119D01*
X234677789Y-172043815D02*
X235177789Y-171177789D01*
X236043815Y-171677789D02*
X235177789Y-171177789D01*
X247302145Y-178177789D02*
X246436119Y-177677789D01*
X240802145Y-189436119D02*
X240302145Y-190302145D01*
X241284196Y-192601183D02*
X225695738Y-183601183D01*
X249784196Y-177878751D02*
X241284196Y-192601183D01*
X228177789Y-183302145D02*
X229043815Y-183802145D01*
%TO.C,S24*%
X231275000Y-111546781D02*
X231275000Y-128546781D01*
X229275000Y-113046781D02*
X228275000Y-113046781D01*
X213275000Y-128546781D02*
X213275000Y-111546781D01*
X229275000Y-113046781D02*
X229275000Y-114046781D01*
X229275000Y-126046781D02*
X229275000Y-127046781D01*
X215275000Y-114046781D02*
X215275000Y-113046781D01*
X215275000Y-127046781D02*
X216275000Y-127046781D01*
X228275000Y-127046781D02*
X229275000Y-127046781D01*
X213275000Y-111546781D02*
X231275000Y-111546781D01*
X215275000Y-127046781D02*
X215275000Y-126046781D01*
X216275000Y-113046781D02*
X215275000Y-113046781D01*
X231275000Y-128546781D02*
X213275000Y-128546781D01*
%TO.C,S6*%
X154613239Y-129264389D02*
X154855161Y-130234684D01*
X154613239Y-129264389D02*
X153642943Y-129506311D01*
X156190947Y-127325101D02*
X160303620Y-143820129D01*
X144416005Y-146235435D02*
X144174083Y-145265140D01*
X141271021Y-133621591D02*
X141029099Y-132651295D01*
X141999394Y-132409373D02*
X141029099Y-132651295D01*
X142838297Y-148174723D02*
X138725624Y-131679695D01*
X157758223Y-141878233D02*
X158000145Y-142848529D01*
X160303620Y-143820129D02*
X142838297Y-148174723D01*
X144416005Y-146235435D02*
X145386301Y-145993513D01*
X138725624Y-131679695D02*
X156190947Y-127325101D01*
X157029850Y-143090451D02*
X158000145Y-142848529D01*
%TD*%
M02*
