M48
; DRILL file {KiCad (6.0.5)} date Sat May  7 22:58:40 2022
; FORMAT={-:-/ absolute / metric / decimal}
; #@! TF.CreationDate,2022-05-07T22:58:40-04:00
; #@! TF.GenerationSoftware,Kicad,Pcbnew,(6.0.5)
; #@! TF.FileFunction,Plated,1,2,PTH
FMAT,2
METRIC
; #@! TA.AperFunction,Plated,PTH,ComponentDrill
T1C1.092
; #@! TA.AperFunction,Plated,PTH,ComponentDrill
T2C1.270
%
G90
G05
T1
X262.62Y-104.02
X262.62Y-106.56
X262.62Y-109.1
X262.62Y-111.64
X262.62Y-114.18
X262.62Y-116.72
X262.62Y-119.26
X262.62Y-121.8
X262.62Y-124.34
X262.62Y-126.88
X262.62Y-129.42
X262.62Y-131.96
X268.76Y-101.0
X272.0Y-101.0
X277.86Y-104.02
X277.86Y-106.56
X277.86Y-109.1
X277.86Y-111.64
X277.86Y-114.18
X277.86Y-116.72
X277.86Y-119.26
X277.86Y-121.8
X277.86Y-124.34
X277.86Y-126.88
X277.86Y-129.42
X277.86Y-131.96
T2
X145.582Y-142.647
X149.695Y-159.142
X150.942Y-143.475
X150.942Y-143.475
X153.808Y-175.637
X155.055Y-159.97
X155.055Y-159.97
X155.285Y-140.227
X159.167Y-176.465
X159.167Y-176.465
X159.398Y-156.722
X163.511Y-173.217
X172.484Y-125.211
X173.67Y-142.17
X174.855Y-159.128
X177.618Y-126.957
X177.618Y-126.957
X178.804Y-143.916
X178.804Y-143.916
X179.99Y-160.875
X179.99Y-160.875
X182.459Y-124.514
X183.645Y-141.472
X184.831Y-158.431
X196.647Y-118.289
X196.944Y-135.286
X197.24Y-152.283
X201.683Y-120.301
X201.683Y-120.301
X201.98Y-137.298
X201.98Y-137.298
X202.276Y-154.296
X202.276Y-154.296
X206.646Y-118.114
X206.942Y-135.111
X207.239Y-152.109
X217.275Y-123.847
X217.275Y-140.847
X217.275Y-157.847
X222.275Y-125.947
X222.275Y-125.947
X222.275Y-142.947
X222.275Y-142.947
X222.275Y-159.947
X222.275Y-159.947
X227.275Y-123.847
X227.275Y-140.847
X227.275Y-157.847
X231.51Y-181.531
X234.79Y-185.85
X234.79Y-185.85
X235.275Y-123.847
X235.275Y-140.847
X235.275Y-157.847
X240.17Y-186.531
X240.275Y-125.947
X240.275Y-125.947
X240.275Y-142.947
X240.275Y-142.947
X240.275Y-159.947
X240.275Y-159.947
X245.275Y-123.847
X245.275Y-140.847
X245.275Y-157.847
X247.424Y-191.46
X250.395Y-195.997
X250.395Y-195.997
X255.715Y-197.052
X262.607Y-202.476
X265.255Y-207.209
X265.255Y-207.209
X270.488Y-208.632
T0
M30
